<?xml version="1.0" encoding="UTF-8" ?>
<!DOCTYPE svg PUBLIC "-//W3C//DTD SVG 1.1//EN" "http://www.w3.org/Graphics/SVG/1.1/DTD/svg11.dtd">
<svg width="388pt" height="92pt" viewBox="0 0 388 92" version="1.1" xmlns="http://www.w3.org/2000/svg">
<g id="#454545ff">
<path fill="#454545" opacity="1.00" d=" M 150.42 26.70 C 156.73 25.04 163.97 26.68 168.46 31.54 C 176.12 39.89 174.95 54.98 165.68 61.69 C 157.94 67.29 145.70 65.70 140.31 57.58 C 132.90 47.30 137.36 29.69 150.42 26.70 M 152.43 28.53 C 148.25 29.61 145.75 33.77 144.74 37.71 C 143.47 43.17 143.75 49.04 145.75 54.30 C 147.17 57.97 149.97 61.49 154.00 62.36 C 157.32 63.19 160.94 61.65 162.86 58.85 C 165.70 54.84 166.16 49.70 166.00 44.92 C 165.75 40.18 164.72 35.13 161.44 31.51 C 159.25 29.03 155.69 27.63 152.43 28.53 Z" />
<path fill="#454545" opacity="1.00" d=" M 184.74 27.72 C 189.21 25.14 194.56 26.15 199.31 27.27 C 199.36 30.34 201.27 33.93 198.96 36.58 C 197.26 33.18 195.60 28.26 191.00 28.24 C 186.42 27.92 183.26 33.43 185.83 37.24 C 189.36 41.93 196.05 42.65 199.68 47.32 C 203.81 51.95 202.11 59.84 196.86 62.88 C 191.76 66.09 185.34 65.20 179.99 63.12 C 179.88 59.68 177.01 55.18 180.18 52.57 C 181.98 56.85 184.41 62.67 189.95 62.57 C 195.14 63.03 197.85 56.08 194.68 52.39 C 190.84 48.04 184.27 47.04 181.04 42.01 C 177.90 37.34 179.75 30.29 184.74 27.72 Z" />
<path fill="#454545" opacity="1.00" d=" M 8.30 27.17 C 13.76 26.91 19.24 26.88 24.70 27.13 C 24.45 29.24 21.86 29.26 20.49 30.39 C 19.50 35.00 20.12 39.79 20.10 44.47 C 25.49 40.68 29.70 35.49 33.38 30.08 C 31.81 29.42 30.17 28.75 29.35 27.14 C 34.54 26.93 39.75 26.88 44.94 27.19 C 43.17 29.79 39.59 29.46 37.27 31.30 C 33.26 34.36 30.19 38.44 26.74 42.07 C 30.61 47.51 34.51 52.95 38.78 58.08 C 40.67 60.50 43.82 61.42 45.73 63.81 C 42.15 64.08 38.56 64.01 34.97 64.01 C 29.70 58.06 26.22 50.56 20.14 45.38 C 20.09 50.44 19.50 55.61 20.49 60.61 C 22.31 61.54 24.49 62.04 25.71 63.83 C 19.92 64.06 14.10 64.23 8.33 63.66 C 9.88 62.35 11.75 61.57 13.48 60.54 C 14.36 57.80 13.92 54.85 14.02 52.01 C 13.86 45.33 14.25 38.63 13.86 31.97 C 13.81 28.84 9.40 29.72 8.30 27.17 Z" />
<path fill="#454545" opacity="1.00" d=" M 47.42 27.28 C 53.97 26.84 60.57 26.85 67.13 27.21 C 71.52 27.32 76.17 30.23 76.60 34.91 C 77.66 39.99 74.13 44.40 69.85 46.60 C 72.02 50.25 74.11 53.95 76.52 57.45 C 78.38 60.22 81.75 61.81 82.81 65.13 C 79.34 64.83 75.24 65.10 72.55 62.46 C 68.97 58.79 67.18 53.85 64.22 49.74 C 63.09 48.09 60.80 48.46 59.10 47.96 C 59.09 52.16 58.53 56.47 59.49 60.60 C 61.30 61.57 63.53 61.98 64.70 63.84 C 58.91 64.10 53.10 64.10 47.31 63.84 C 48.40 61.29 52.68 62.06 52.86 59.04 C 53.25 52.70 52.87 46.34 53.01 39.99 C 52.93 36.81 53.35 33.54 52.51 30.44 C 50.74 29.50 48.86 28.72 47.42 27.28 M 59.09 29.67 C 58.93 35.17 59.01 40.66 59.01 46.16 C 61.20 45.97 63.46 46.00 65.57 45.28 C 71.34 42.64 71.69 32.87 65.92 30.06 C 63.82 28.86 61.35 29.46 59.09 29.67 Z" />
<path fill="#454545" opacity="1.00" d=" M 83.42 27.66 C 92.32 26.22 101.41 27.36 110.40 27.00 C 110.57 30.18 110.78 33.37 110.73 36.56 C 107.31 35.24 108.05 29.72 103.97 29.58 C 101.08 29.29 98.17 29.50 95.27 29.59 C 95.24 34.41 95.29 39.23 95.26 44.04 C 98.38 44.04 101.52 44.06 104.59 43.43 C 105.41 41.94 106.15 40.41 106.84 38.86 L 107.77 39.88 C 108.27 43.81 108.04 47.81 107.79 51.75 C 106.34 50.33 105.18 48.68 103.95 47.08 C 101.11 46.51 98.19 46.75 95.32 46.68 C 95.64 51.31 94.22 56.43 96.30 60.73 C 99.34 61.95 102.77 61.69 105.95 61.30 C 109.91 60.64 109.85 55.17 113.64 54.12 C 113.31 57.45 112.55 60.72 111.82 63.98 C 102.24 63.92 92.65 64.21 83.07 63.81 C 84.20 61.45 87.59 61.99 88.71 59.79 C 89.34 55.55 88.89 51.24 89.00 46.97 C 88.78 41.45 89.52 35.85 88.56 30.39 C 86.88 29.41 85.11 28.61 83.42 27.66 Z" />
<path fill="#454545" opacity="1.00" d=" M 115.39 27.30 C 121.14 26.80 126.94 26.93 132.70 27.17 C 131.70 29.12 129.50 29.45 127.63 30.08 C 127.04 40.34 127.01 50.69 127.65 60.94 C 129.55 61.51 131.69 61.90 132.70 63.83 C 126.94 64.07 121.15 64.20 115.39 63.71 C 116.91 62.37 118.71 61.45 120.50 60.54 C 121.56 55.80 120.79 50.87 121.00 46.06 C 120.79 40.85 121.52 35.55 120.54 30.41 C 118.76 29.49 116.87 28.70 115.39 27.30 Z" />
<path fill="#454545" opacity="1.00" d=" M 217.86 27.96 C 219.88 26.40 222.63 27.18 225.00 26.97 C 230.32 27.18 235.82 26.42 240.99 28.01 C 245.79 29.48 247.35 35.93 244.78 39.93 C 243.34 42.42 240.50 43.46 237.94 44.42 C 241.69 45.01 246.11 46.38 247.49 50.34 C 249.48 55.53 245.62 61.19 240.56 62.61 C 233.07 64.96 225.05 63.81 217.33 63.84 C 218.31 61.12 222.90 62.07 222.86 58.95 C 223.11 49.97 223.11 40.96 222.86 31.98 C 222.92 29.30 219.53 29.22 217.86 27.96 M 229.53 30.34 C 228.95 34.78 229.33 39.28 229.32 43.74 C 232.46 43.43 236.51 43.63 238.38 40.55 C 240.20 36.94 239.46 31.28 235.29 29.69 C 233.47 29.17 230.95 28.80 229.53 30.34 M 229.28 45.86 C 229.46 50.61 228.71 55.48 229.79 60.16 C 231.19 62.08 233.91 61.70 235.92 61.23 C 241.39 59.83 242.70 51.88 238.84 48.21 C 236.19 45.96 232.53 46.09 229.28 45.86 Z" />
<path fill="#454545" opacity="1.00" d=" M 253.32 27.16 C 257.19 26.91 261.08 27.00 264.96 27.00 C 268.76 35.71 272.54 44.42 276.32 53.13 C 280.08 44.38 284.11 35.75 287.90 27.01 C 291.81 26.99 295.79 26.68 299.62 27.72 C 297.82 28.65 295.95 29.40 294.16 30.32 C 293.44 32.47 293.77 34.81 293.72 37.05 C 294.10 44.34 293.97 51.65 294.43 58.94 C 294.30 61.45 297.28 61.48 298.97 62.15 C 298.98 62.61 299.00 63.54 299.01 64.00 C 293.61 63.92 288.21 64.21 282.82 63.77 C 284.16 62.12 286.42 61.59 287.78 60.04 C 288.29 50.98 287.91 41.86 287.93 32.77 C 284.19 41.81 280.36 50.82 276.66 59.87 C 275.97 61.39 275.38 63.13 273.82 63.99 C 269.23 54.00 265.81 43.51 261.53 33.38 C 261.47 41.95 260.33 50.52 260.89 59.08 C 261.01 61.66 264.21 61.32 265.98 62.11 C 265.98 62.58 266.00 63.53 266.01 64.00 C 261.28 63.95 256.55 64.17 251.83 63.78 C 253.41 61.72 256.76 60.97 257.03 58.07 C 258.10 50.79 258.31 43.40 258.93 36.07 C 258.86 34.20 259.44 32.04 258.46 30.36 C 256.71 29.30 254.39 29.10 253.32 27.16 Z" />
<path fill="#454545" opacity="1.00" d=" M 301.30 27.16 C 306.86 26.98 312.46 26.77 318.01 27.19 L 318.80 28.23 C 317.11 28.95 315.37 29.52 313.64 30.10 C 312.85 38.04 313.47 46.03 313.23 53.99 C 313.40 56.22 312.78 58.79 314.21 60.72 C 316.47 61.79 319.07 61.68 321.51 61.44 C 325.83 60.96 326.83 55.96 329.28 53.12 C 330.26 56.78 328.88 60.44 328.10 64.00 C 319.09 63.90 310.07 64.22 301.07 63.82 C 302.12 61.79 304.44 61.52 306.41 60.99 C 307.51 55.05 306.82 48.99 307.00 42.99 C 306.87 38.76 307.44 34.45 306.52 30.29 C 304.69 29.40 302.45 29.03 301.30 27.16 Z" />
<path fill="#454545" opacity="1.00" d=" M 333.32 27.16 C 337.19 26.91 341.08 27.00 344.96 27.00 C 348.76 35.71 352.54 44.42 356.33 53.13 C 360.08 44.38 364.11 35.75 367.90 27.01 C 371.49 27.48 376.08 25.80 379.01 28.12 C 377.30 29.38 373.64 29.24 373.80 32.03 C 373.69 40.98 374.10 49.95 374.43 58.90 C 374.27 61.43 377.26 61.49 378.97 62.15 C 378.98 62.62 379.00 63.54 379.01 64.00 C 373.61 63.93 368.20 64.20 362.82 63.77 C 364.32 61.58 368.52 61.47 367.98 58.14 C 368.02 49.69 368.07 41.24 367.89 32.79 C 364.41 41.33 360.77 49.81 357.29 58.36 C 356.42 60.51 355.29 62.54 354.01 64.48 C 349.39 54.31 345.86 43.69 341.53 33.39 C 341.46 41.94 340.34 50.49 340.88 59.03 C 340.96 61.65 344.20 61.32 345.98 62.11 C 345.98 62.58 346.00 63.53 346.01 64.00 C 341.28 63.95 336.55 64.17 331.83 63.78 C 333.69 61.62 337.27 60.61 337.19 57.24 C 338.04 49.14 338.73 41.00 338.99 32.86 C 339.77 28.98 334.56 29.93 333.32 27.16 Z" />
</g>
</svg>
