<?xml version="1.0" encoding="UTF-8" ?>
<!DOCTYPE svg PUBLIC "-//W3C//DTD SVG 1.1//EN" "http://www.w3.org/Graphics/SVG/1.1/DTD/svg11.dtd">
<svg width="388pt" height="92pt" viewBox="0 0 388 92" version="1.1" xmlns="http://www.w3.org/2000/svg">
<g id="#ffffffff">
<path fill="#ffffff" opacity="1.00" d=" M 150.47 26.69 C 156.09 25.26 162.41 26.32 166.92 30.09 C 176.46 38.08 175.48 55.34 165.03 62.14 C 157.26 67.19 145.57 65.48 140.32 57.60 C 132.89 47.31 137.36 29.66 150.47 26.69 M 152.40 28.55 C 147.11 30.03 144.65 35.88 144.19 40.91 C 143.55 47.22 144.45 54.27 148.75 59.22 C 151.64 62.68 157.28 63.81 160.91 60.85 C 164.98 57.58 165.95 51.94 166.03 47.01 C 166.03 41.83 165.25 36.25 161.93 32.09 C 159.76 29.27 155.93 27.53 152.40 28.55 Z" />
<path fill="#ffffff" opacity="1.00" d=" M 184.73 27.73 C 189.19 25.18 194.56 26.05 199.28 27.31 C 199.64 30.10 200.04 32.89 200.41 35.68 C 197.80 37.13 197.96 34.00 197.04 32.72 C 195.77 29.19 191.35 27.00 187.93 28.99 C 184.12 30.81 184.07 36.60 187.35 38.98 C 191.24 42.11 196.50 43.32 199.71 47.35 C 203.63 51.78 202.25 59.23 197.47 62.48 C 192.34 66.08 185.53 65.39 180.01 63.08 C 179.38 59.94 178.88 56.78 178.40 53.62 C 178.96 53.49 180.08 53.25 180.65 53.12 C 181.91 57.75 185.43 63.39 191.00 62.50 C 195.66 62.10 197.52 55.75 194.68 52.39 C 191.00 48.14 184.72 47.19 181.40 42.52 C 177.80 37.90 179.54 30.39 184.73 27.73 Z" />
<path fill="#ffffff" opacity="1.00" d=" M 8.77 27.02 C 13.92 27.05 19.08 26.86 24.22 27.10 C 26.22 29.69 20.38 28.68 20.29 30.99 C 19.65 35.40 20.11 39.90 20.05 44.34 C 25.56 40.72 29.98 35.41 33.34 29.79 C 31.76 29.27 29.51 29.28 29.78 27.02 C 34.51 27.05 39.26 26.86 43.99 27.09 C 45.99 28.95 42.19 29.16 41.10 29.53 C 34.75 31.40 31.28 37.71 26.74 42.06 C 31.07 48.05 35.26 54.21 40.27 59.66 C 41.60 61.63 45.29 61.10 45.26 63.97 C 41.83 64.02 38.41 63.99 34.99 64.01 C 30.81 58.79 26.98 53.31 23.05 47.90 C 22.33 46.81 21.12 46.27 20.04 45.63 C 20.14 50.40 19.62 55.24 20.30 59.97 C 20.87 62.60 25.66 60.69 25.23 63.98 C 19.81 63.98 14.38 64.10 8.95 63.89 C 8.83 60.58 14.31 62.64 13.91 58.98 C 14.07 50.02 14.06 41.03 13.91 32.07 C 14.38 28.16 8.40 30.58 8.77 27.02 Z" />
<path fill="#ffffff" opacity="1.00" d=" M 47.86 27.17 C 54.56 26.97 61.31 26.73 68.00 27.31 C 72.10 27.59 76.19 30.58 76.58 34.88 C 77.62 39.88 74.27 44.57 69.80 46.49 C 73.54 52.17 76.09 59.32 82.34 62.75 C 82.31 63.34 82.25 64.52 82.22 65.10 C 78.68 64.88 74.48 64.91 72.00 61.93 C 68.94 58.30 66.99 53.92 64.44 49.95 C 63.34 48.02 60.91 48.33 59.04 48.15 C 59.12 52.10 58.63 56.13 59.32 60.03 C 59.97 62.57 64.68 60.69 64.23 63.98 C 58.74 64.01 53.26 64.01 47.77 63.98 C 47.41 60.46 53.18 62.74 52.91 59.00 C 53.07 50.03 53.06 41.04 52.91 32.07 C 53.32 28.41 47.97 30.39 47.86 27.17 M 59.11 29.83 C 58.90 35.24 59.04 40.65 59.00 46.06 C 61.53 45.91 64.42 46.26 66.60 44.68 C 71.63 41.29 71.23 31.92 65.25 29.76 C 63.28 28.92 61.11 29.30 59.11 29.83 Z" />
<path fill="#ffffff" opacity="1.00" d=" M 84.28 27.04 C 92.99 26.95 101.70 27.03 110.42 27.00 C 110.50 29.96 110.74 32.92 110.88 35.88 C 110.35 35.85 109.28 35.80 108.75 35.77 C 107.88 33.49 107.49 30.08 104.53 29.67 C 101.46 29.22 98.34 29.46 95.26 29.67 C 95.27 34.45 95.27 39.22 95.26 44.00 C 98.45 43.95 101.73 44.34 104.81 43.28 C 105.64 42.13 105.81 37.95 107.90 39.72 C 108.13 43.56 107.97 47.42 107.97 51.26 C 104.99 51.49 106.00 46.98 103.17 46.90 C 100.55 46.53 97.90 46.79 95.27 46.73 C 95.41 50.97 94.91 55.26 95.57 59.46 C 97.28 62.71 101.91 61.26 104.93 61.47 C 108.76 61.47 110.01 57.45 111.65 54.75 L 113.70 54.61 C 113.25 57.77 112.51 60.88 111.78 63.99 C 102.35 64.00 92.92 64.03 83.49 63.97 C 83.23 61.08 86.35 61.75 88.23 61.16 C 89.47 57.88 88.89 54.34 89.00 50.93 C 88.91 44.60 89.17 38.25 88.89 31.93 C 89.34 28.53 84.05 30.25 84.28 27.04 Z" />
<path fill="#ffffff" opacity="1.00" d=" M 115.91 27.13 C 121.35 26.88 126.79 27.03 132.23 27.02 C 132.48 29.68 129.43 29.21 127.70 29.96 C 126.83 35.61 127.45 41.35 127.27 47.04 C 127.40 51.71 126.88 56.43 127.73 61.05 C 129.46 61.76 132.49 61.32 132.23 63.98 C 126.81 63.99 121.39 64.08 115.98 63.91 C 115.86 61.30 118.95 61.99 120.42 60.75 C 121.29 58.62 120.94 56.27 121.01 54.03 C 120.91 46.70 121.15 39.37 120.90 32.05 C 121.42 28.37 115.88 30.42 115.91 27.13 Z" />
<path fill="#ffffff" opacity="1.00" d=" M 217.62 28.03 C 218.19 27.78 219.34 27.28 219.91 27.03 C 226.70 27.21 233.63 26.35 240.33 27.78 C 244.98 28.77 247.18 34.46 245.43 38.62 C 244.27 41.89 240.92 43.56 237.79 44.43 C 241.61 44.85 246.06 46.39 247.49 50.34 C 249.36 55.20 246.04 60.70 241.31 62.32 C 233.81 65.17 225.60 63.61 217.78 63.98 C 217.33 60.36 223.29 62.73 222.90 58.99 C 223.07 50.02 223.06 41.02 222.91 32.05 C 223.09 29.10 219.42 29.25 217.62 28.03 M 229.53 30.36 C 228.91 34.72 229.43 39.19 229.27 43.60 C 231.68 43.48 234.30 43.75 236.44 42.40 C 239.65 40.62 239.81 36.13 238.66 33.06 C 237.50 29.55 232.27 27.94 229.53 30.36 M 229.27 45.94 C 229.29 49.66 229.21 53.38 229.28 57.10 C 229.34 58.70 229.45 60.68 231.23 61.35 C 234.26 62.07 237.81 61.21 239.68 58.60 C 241.63 55.47 241.59 50.82 238.82 48.18 C 236.15 46.00 232.54 45.97 229.27 45.94 Z" />
<path fill="#ffffff" opacity="1.00" d=" M 253.78 27.02 C 257.51 26.98 261.24 27.01 264.97 27.00 C 268.75 35.71 272.55 44.42 276.32 53.14 C 280.06 44.38 284.12 35.75 287.89 27.00 C 291.39 27.03 294.89 26.90 298.39 27.07 C 299.67 30.27 293.95 28.41 293.82 31.21 C 293.60 40.41 294.19 49.63 294.38 58.84 C 294.26 61.39 297.10 61.74 299.00 61.92 C 299.00 62.44 299.00 63.48 299.00 64.00 C 293.76 63.98 288.53 64.06 283.30 63.94 C 282.83 60.54 288.29 62.53 287.95 59.09 C 288.04 50.32 288.05 41.54 287.92 32.77 C 283.61 42.98 279.52 53.29 275.02 63.42 C 274.61 63.44 273.80 63.49 273.39 63.51 C 269.33 53.53 265.66 43.38 261.51 33.43 C 261.45 41.94 260.42 50.43 260.82 58.94 C 260.91 61.62 264.09 61.54 266.00 61.92 C 266.00 62.44 266.00 63.48 266.00 64.00 C 261.51 64.00 257.02 64.00 252.53 64.00 C 252.53 63.51 252.54 62.52 252.54 62.03 C 254.33 61.54 256.77 61.09 256.90 58.77 C 258.15 50.96 258.32 43.00 258.98 35.12 C 258.85 33.39 259.56 31.17 258.03 29.89 C 256.39 29.05 253.47 29.66 253.78 27.02 Z" />
<path fill="#ffffff" opacity="1.00" d=" M 301.77 27.02 C 307.35 26.99 312.92 26.97 318.49 27.04 C 318.66 29.71 315.49 29.18 313.74 29.93 C 312.70 39.22 313.51 48.63 313.28 57.96 C 313.01 62.11 318.20 61.67 321.01 61.50 C 325.24 61.52 326.76 57.09 328.11 53.87 C 328.57 54.17 329.49 54.77 329.94 55.07 C 329.51 58.08 328.80 61.04 328.10 64.00 C 319.23 63.98 310.37 64.03 301.50 63.97 C 301.23 61.14 304.38 61.76 306.23 61.14 C 306.75 59.46 307.13 57.74 307.02 55.97 C 306.91 47.97 307.16 39.95 306.89 31.95 C 307.37 28.14 301.35 30.60 301.77 27.02 Z" />
<path fill="#ffffff" opacity="1.00" d=" M 333.78 27.02 C 337.51 26.98 341.24 27.01 344.97 27.00 C 348.76 35.71 352.55 44.42 356.33 53.13 C 360.06 44.37 364.12 35.75 367.89 27.00 C 371.38 27.04 374.87 26.88 378.36 27.09 C 379.81 30.13 373.89 28.46 373.82 31.22 C 373.61 40.46 374.19 49.72 374.39 58.96 C 374.34 61.44 377.15 61.72 379.00 61.92 C 379.00 62.44 379.00 63.48 379.00 64.00 C 373.77 63.98 368.53 64.06 363.30 63.94 C 362.82 60.55 368.23 62.52 367.95 59.15 C 368.04 50.36 368.07 41.56 367.90 32.77 C 363.63 43.01 359.50 53.31 355.01 63.44 C 354.60 63.45 353.78 63.47 353.38 63.49 C 349.34 53.50 345.65 43.38 341.51 33.43 C 341.44 41.94 340.42 50.44 340.83 58.95 C 340.93 61.62 344.09 61.54 346.00 61.92 C 346.00 62.44 346.00 63.48 346.00 64.00 C 341.51 64.00 337.02 64.00 332.53 64.00 C 332.53 63.51 332.54 62.52 332.55 62.03 C 334.32 61.55 336.74 61.10 336.89 58.81 C 338.15 50.98 338.32 43.01 338.98 35.11 C 338.86 33.38 339.54 31.16 338.02 29.87 C 336.38 29.06 333.48 29.65 333.78 27.02 Z" />
</g>
</svg>
